<?xml version="1.0" standalone="no"?>
<!DOCTYPE svg PUBLIC "-//W3C//DTD SVG 20010904//EN"
 "http://www.w3.org/TR/2001/REC-SVG-20010904/DTD/svg10.dtd">
<svg version="1.0" xmlns="http://www.w3.org/2000/svg"
 width="260.000000pt" height="260.000000pt" viewBox="0 0 260.000000 260.000000"
 preserveAspectRatio="xMidYMid meet">
<metadata>
Created by potrace 1.11, written by Peter Selinger 2001-2013
</metadata>
<g transform="translate(0.000000,260.000000) scale(0.100000,-0.100000)"
fill="#000000" stroke="none">
<path d="M0 1300 l0 -1300 1300 0 1300 0 0 1300 0 1300 -1300 0 -1300 0 0
-1300z m2590 845 c0 -2 -21 -16 -47 -31 -182 -105 -565 -372 -748 -523 -355
-291 -690 -641 -930 -969 l-89 -122 -243 0 -243 0 -12 24 c-9 22 -5 32 38 93
439 615 1151 1112 2111 1473 178 67 163 61 163 55z m-1680 -186 c91 -78 204
-173 253 -212 48 -39 87 -78 87 -86 0 -9 -37 -39 -83 -67 -275 -170 -367 -224
-379 -224 -8 0 -25 12 -39 26 -13 14 -96 92 -184 173 -429 392 -505 464 -505
479 0 8 7 24 17 34 15 17 39 18 342 18 l326 0 165 -141z m1046 -894 c542 -487
574 -516 574 -534 0 -40 -12 -41 -359 -41 l-336 1 -57 47 c-185 154 -488 426
-488 438 0 7 39 50 87 96 49 46 128 122 178 171 49 48 95 86 101 85 6 -2 141
-120 300 -263z"/>
</g>
</svg>
